<svg xmlns="http://www.w3.org/2000/svg" width="805" height="600"><rect width="805" height="600" x="0" y="0" fill="#FFFFFF" id="background"/><g transform="translate(18,19)" id="visualization"><g><rect x="0" y="5" height="17.585106382978722" width="5" fill="black"><title>CFT: 6</title></rect><rect x="381" y="0" height="17.585106382978722" width="5" fill="black"><title>Bajo Tutela: 6</title></rect><rect x="381" y="22.585106382978722" height="23.4468085106383" width="5" fill="black"><title>4 años: 8</title></rect><rect x="381" y="51.03191489361702" height="46.89361702127656" width="5" fill="black"><title>6 años: 16</title></rect><rect x="0" y="27.585106382978722" height="120.16489361702128" width="5" fill="black"><title>Universidad: 41</title></rect><rect x="381" y="102.92553191489358" height="213.95212765957453" width="5" fill="black"><title>7 años: 73</title></rect><rect x="762" y="7.5" height="219.81382978723406" width="5" fill="black"><title>Metropolitana: 75</title></rect><rect x="381" y="321.8776595744681" height="249.1223404255319" width="5" fill="black"><title>5 años: 85</title></rect><rect x="762" y="232.31382978723406" height="331.18617021276594" width="5" fill="black"><title>Otras regiones: 113</title></rect><rect x="0" y="152.75" height="413.25" width="5" fill="black"><title>IP: 141</title></rect></g><g fill="none" stroke-opacity="1"><g style="mix-blend-mode: multiply;"><path d="M5,13.792553191489361C193,13.792553191489361,193,8.792553191489361,381,8.792553191489361" stroke="#5f6368" stroke-width="17.585106382978722"/><title>CFT → Bajo Tutela: 6</title></g><g style="mix-blend-mode: multiply;"><path d="M5,154.2154255319149C193,154.2154255319149,193,44.56648936170213,381,44.56648936170213" stroke="#e8571a" stroke-width="2.9308510638297873"/><title>IP → 4 años: 1</title></g><g style="mix-blend-mode: multiply;"><path d="M5,459.0239361702128C193,459.0239361702128,193,464.0239361702128,381,464.0239361702128" stroke="#e8571a" stroke-width="213.95212765957447"/><title>IP → 5 años: 73</title></g><g style="mix-blend-mode: multiply;"><path d="M5,253.86436170212767C193,253.86436170212767,193,218.69414893617017,381,218.69414893617017" stroke="#e8571a" stroke-width="196.36702127659575"/><title>IP → 7 años: 67</title></g><g style="mix-blend-mode: multiply;"><path d="M5,37.84308510638298C193,37.84308510638298,193,32.84308510638298,381,32.84308510638298" stroke="#9aa0a6" stroke-width="20.51595744680851"/><title>Universidad → 4 años: 7</title></g><g style="mix-blend-mode: multiply;"><path d="M5,130.16489361702128C193,130.16489361702128,193,339.46276595744683,381,339.46276595744683" stroke="#9aa0a6" stroke-width="35.170212765957444"/><title>Universidad → 5 años: 12</title></g><g style="mix-blend-mode: multiply;"><path d="M5,71.54787234042553C193,71.54787234042553,193,74.47872340425532,381,74.47872340425532" stroke="#9aa0a6" stroke-width="46.8936170212766"/><title>Universidad → 6 años: 16</title></g><g style="mix-blend-mode: multiply;"><path d="M5,103.7872340425532C193,103.7872340425532,193,111.71808510638294,381,111.71808510638294" stroke="#9aa0a6" stroke-width="17.585106382978722"/><title>Universidad → 7 años: 6</title></g><g style="mix-blend-mode: multiply;"><path d="M386,14.654255319148938C574,14.654255319148938,574,235.24468085106383,762,235.24468085106383" stroke="#fbf0c4" stroke-width="5.861702127659575"/><title>Bajo Tutela → Otras regiones: 2</title></g><g style="mix-blend-mode: multiply;"><path d="M386,5.861702127659575C574,5.861702127659575,574,13.361702127659575,762,13.361702127659575" stroke="#fbf0c4" stroke-width="11.72340425531915"/><title>Bajo Tutela → Metropolitana: 4</title></g><g style="mix-blend-mode: multiply;"><path d="M386,43.10106382978723C574,43.10106382978723,574,241.10638297872342,762,241.10638297872342" stroke="#fade8b" stroke-width="5.861702127659575"/><title>4 años → Otras regiones: 2</title></g><g style="mix-blend-mode: multiply;"><path d="M386,483.0744680851064C574,483.0744680851064,574,475.5744680851064,762,475.5744680851064" stroke="#f6c445" stroke-width="175.85106382978725"/><title>5 años → Otras regiones: 60</title></g><g style="mix-blend-mode: multiply;"><path d="M386,358.51329787234044C574,358.51329787234044,574,190.6781914893617,762,190.6781914893617" stroke="#f6c445" stroke-width="73.27127659574468"/><title>5 años → Metropolitana: 25</title></g><g style="mix-blend-mode: multiply;"><path d="M386,256.79521276595744C574,256.79521276595744,574,327.5664893617021,762,327.5664893617021" stroke="#b8860b" stroke-width="120.16489361702128"/><title>7 años → Otras regiones: 41</title></g><g style="mix-blend-mode: multiply;"><path d="M386,149.81914893617017C574,149.81914893617017,574,107.14893617021278,762,107.14893617021278" stroke="#b8860b" stroke-width="93.7872340425532"/><title>7 años → Metropolitana: 32</title></g><g style="mix-blend-mode: multiply;"><path d="M386,31.377659574468083C574,31.377659574468083,574,28.01595744680851,762,28.01595744680851" stroke="#fade8b" stroke-width="17.585106382978722"/><title>4 años → Metropolitana: 6</title></g><g style="mix-blend-mode: multiply;"><path d="M386,62.75531914893617C574,62.75531914893617,574,48.53191489361703,762,48.53191489361703" stroke="#e3a81c" stroke-width="23.4468085106383"/><title>6 años → Metropolitana: 8</title></g><g style="mix-blend-mode: multiply;"><path d="M386,86.20212765957447C574,86.20212765957447,574,255.76063829787236,762,255.76063829787236" stroke="#e3a81c" stroke-width="23.4468085106383"/><title>6 años → Otras regiones: 8</title></g></g><g><text x="9" y="13.792553191489361" text-anchor="start"><tspan alignment-baseline="middle" x="9" style="font-family: Arial, sans-serif; font-size: 10px; fill: black; font-weight: bold;">CFT</tspan></text><text x="390" y="8.792553191489361" text-anchor="start"><tspan alignment-baseline="middle" x="390" style="font-family: Arial, sans-serif; font-size: 10px; fill: black; font-weight: bold;">Bajo Tutela</tspan></text><text x="390" y="34.308510638297875" text-anchor="start"><tspan alignment-baseline="middle" x="390" style="font-family: Arial, sans-serif; font-size: 10px; fill: black; font-weight: bold;">4 años</tspan></text><text x="390" y="74.4787234042553" text-anchor="start"><tspan alignment-baseline="middle" x="390" style="font-family: Arial, sans-serif; font-size: 10px; fill: black; font-weight: bold;">6 años</tspan></text><text x="9" y="87.66755319148936" text-anchor="start"><tspan alignment-baseline="middle" x="9" style="font-family: Arial, sans-serif; font-size: 10px; fill: black; font-weight: bold;">Universidad</tspan></text><text x="390" y="209.90159574468083" text-anchor="start"><tspan alignment-baseline="middle" x="390" style="font-family: Arial, sans-serif; font-size: 10px; fill: black; font-weight: bold;">7 años</tspan></text><text x="758" y="117.40691489361703" text-anchor="end"><tspan alignment-baseline="middle" x="758" style="font-family: Arial, sans-serif; font-size: 10px; fill: black; font-weight: bold;">Metropolitana</tspan></text><text x="390" y="446.43882978723406" text-anchor="start"><tspan alignment-baseline="middle" x="390" style="font-family: Arial, sans-serif; font-size: 10px; fill: black; font-weight: bold;">5 años</tspan></text><text x="758" y="397.906914893617" text-anchor="end"><tspan alignment-baseline="middle" x="758" style="font-family: Arial, sans-serif; font-size: 10px; fill: black; font-weight: bold;">Otras regiones</tspan></text><text x="9" y="359.375" text-anchor="start"><tspan alignment-baseline="middle" x="9" style="font-family: Arial, sans-serif; font-size: 10px; fill: black; font-weight: bold;">IP</tspan></text></g><g><text x="2.5" y="1" text-anchor="middle" style="font-family: Arial, sans-serif; font-size: 12px; fill: rgb(123, 123, 123); font-weight: bold;">Tipo</text><text x="383.5" y="-4" text-anchor="middle" style="font-family: Arial, sans-serif; font-size: 12px; fill: rgb(123, 123, 123); font-weight: bold;">Acreditación</text><text x="764.5" y="3.5" text-anchor="middle" style="font-family: Arial, sans-serif; font-size: 12px; fill: rgb(123, 123, 123); font-weight: bold;">Zona</text></g></g></svg>