<?xml version="1.0" encoding="UTF-8"?>
<svg id="Capa_1" data-name="Capa 1" xmlns="http://www.w3.org/2000/svg" viewBox="0 0 845.29 494.72">
  <defs>
    <style>
      .cls-1 {
        fill: #9aa0a6;
      }

      .cls-2 {
        letter-spacing: -.06em;
      }

      .cls-3, .cls-4, .cls-5 {
        isolation: isolate;
      }

      .cls-6 {
        font-size: 9px;
      }

      .cls-6, .cls-7 {
        fill: #fff;
        font-family: ArialNarrow, Arial;
      }

      .cls-8 {
        letter-spacing: -.02em;
      }

      .cls-7 {
        font-size: 8px;
      }

      .cls-9 {
        fill: #5f6368;
      }

      .cls-10 {
        letter-spacing: -.09em;
      }

      .cls-4 {
        font-family: Arial-BoldMT, Arial;
        font-size: 12px;
        font-weight: 700;
      }

      .cls-11 {
        fill: #e8571a;
      }

      .cls-5 {
        font-family: ArialMT, Arial;
        font-size: 10px;
      }

      .cls-12 {
        letter-spacing: -.01em;
      }

      .cls-13 {
        letter-spacing: -.04em;
      }
    </style>
  </defs>
  <g id="leaves">
    <rect id="path0" class="cls-9" y=".67" width="325.29" height="14.53"/>
    <rect id="path1" class="cls-9" x="328.33" y=".67" width="189.66" height="14.53"/>
    <rect id="path2" class="cls-11" y="20.33" width="396.61" height="253.86"/>
    <rect id="path3" class="cls-11" y="275.9" width="396.61" height="202.58"/>
    <rect id="path4" class="cls-11" x="398.32" y="20.33" width="119.67" height="263.27"/>
    <rect id="path5" class="cls-11" x="398.32" y="285.3" width="119.67" height="151.29"/>
    <rect id="path6" class="cls-11" x="398.32" y="438.3" width="74.49" height="40.17"/>
    <rect id="path7" class="cls-11" x="475.07" y="438.3" width="42.91" height="40.17"/>
    <g>
      <rect id="path8" class="cls-1" x="523.11" y=".67" width="114.79" height="91.46"/>
      <rect id="path9" class="cls-1" x="640.7" y=".67" width="113.39" height="91.46"/>
      <rect id="path10" class="cls-1" x="523.11" y="93.84" width="75.59" height="104.28"/>
      <rect id="path11" class="cls-1" x="601.5" y="93.84" width="74.19" height="104.28"/>
      <rect id="path12" class="cls-1" x="678.49" y="93.84" width="75.59" height="104.28"/>
      <rect id="path13" class="cls-1" x="523.11" y="199.83" width="75.59" height="68.38"/>
      <rect id="path14" class="cls-1" x="601.5" y="199.83" width="74.19" height="68.38"/>
      <rect id="path15" class="cls-1" x="678.49" y="199.83" width="75.59" height="68.38"/>
      <rect id="path16" class="cls-1" x="523.11" y="269.92" width="90.99" height="56.41"/>
      <rect id="path17" class="cls-1" x="616.9" y="269.92" width="43.39" height="56.41"/>
      <rect id="path18" class="cls-1" x="663.1" y="269.92" width="44.79" height="56.41"/>
      <rect id="path19" class="cls-1" x="710.69" y="269.92" width="43.39" height="56.41"/>
      <rect id="path20" class="cls-1" x="523.11" y="328.04" width="55.99" height="45.3"/>
      <rect id="path21" class="cls-1" x="581.91" y="328.04" width="55.99" height="45.3"/>
      <rect id="path22" class="cls-1" x="640.7" y="328.04" width="54.59" height="45.3"/>
      <rect id="path23" class="cls-1" x="698.09" y="328.04" width="55.99" height="45.3"/>
      <rect id="path24" class="cls-1" x="523.11" y="375.05" width="75.59" height="33.34"/>
      <rect id="path25" class="cls-1" x="523.11" y="410.1" width="75.59" height="33.34"/>
      <rect id="path26" class="cls-1" x="523.11" y="445.14" width="75.59" height="33.34"/>
      <rect id="path27" class="cls-1" x="601.5" y="375.05" width="48.99" height="50.43"/>
      <rect id="path28" class="cls-1" x="653.3" y="375.05" width="48.99" height="50.43"/>
      <rect id="path29" class="cls-1" x="705.09" y="375.05" width="48.99" height="50.43"/>
      <rect id="path30" class="cls-1" x="601.5" y="427.19" width="100.79" height="24.79"/>
      <rect id="path31" class="cls-1" x="601.5" y="453.69" width="100.79" height="24.79"/>
      <rect id="path32" class="cls-1" x="705.09" y="427.19" width="48.99" height="51.29"/>
    </g>
  </g>
  <g id="legend">
    <g>
      <g>
        <g>
          <rect class="cls-9" x="772.48" y="26.03" width="15" height="15"/>
          <g class="cls-3">
            <text class="cls-5" transform="translate(792.48 38.53)"><tspan x="0" y="0">CF</tspan><tspan class="cls-8" x="13.33" y="0">T</tspan></text>
          </g>
        </g>
        <g>
          <rect class="cls-11" x="772.48" y="46.76" width="15" height="15"/>
          <g class="cls-3">
            <text class="cls-5" transform="translate(792.48 59.26)"><tspan x="0" y="0">I</tspan><tspan class="cls-8" x="2.78" y="0">P</tspan></text>
          </g>
        </g>
        <g>
          <rect class="cls-1" x="772.48" y="67.5" width="15" height="15"/>
          <g class="cls-3">
            <text class="cls-5" transform="translate(792.48 80)"><tspan x="0" y="0">Universidad</tspan></text>
          </g>
        </g>
      </g>
      <g class="cls-3">
        <text class="cls-4" transform="translate(772.48 10.3)"><tspan class="cls-8" x="0" y="0">T</tspan><tspan x="7.11" y="0">ipo</tspan></text>
      </g>
    </g>
  </g>
  <text class="cls-6" transform="translate(371.33 11.03)"><tspan x="0" y="0">CF</tspan><tspan class="cls-12" x="9.83" y="0">T</tspan><tspan x="14.22" y="0" xml:space="preserve"> de la Región de Coquimbo</tspan></text>
  <text class="cls-6" transform="translate(110.41 11.03)"><tspan x="0" y="0">CF</tspan><tspan class="cls-12" x="9.83" y="0">T</tspan><tspan x="14.22" y="0" xml:space="preserve"> de la Región Metropolitana</tspan></text>
  <text class="cls-6" transform="translate(175.12 148.97)"><tspan x="0" y="0">AIE</tspan><tspan class="cls-12" x="11.9" y="0">P</tspan></text>
  <text class="cls-6" transform="translate(169.79 386.61)"><tspan x="0" y="0">INACA</tspan><tspan class="cls-12" x="22.55" y="0">P</tspan></text>
  <text class="cls-6" transform="translate(443.19 148.97)"><tspan x="0" y="0">Duoc UC</tspan></text>
  <text class="cls-6" transform="translate(436.67 362.55)"><tspan x="0" y="0">Santo</tspan><tspan class="cls-12" x="19.29" y="0"> </tspan><tspan class="cls-10" x="21.21" y="0">T</tspan><tspan x="24.9" y="0">omás</tspan></text>
  <text class="cls-6" transform="translate(420.08 460.13)"><tspan x="0" y="0">I</tspan><tspan class="cls-12" x="2.05" y="0">P</tspan><tspan x="6.85" y="0" xml:space="preserve"> de Chile</tspan></text>
  <text class="cls-6" transform="translate(555.07 49.05)"><tspan x="0" y="0">U.</tspan><tspan class="cls-13" x="7.38" y="0"> </tspan><tspan x="9.03" y="0">Andrés Bello</tspan></text>
  <text class="cls-6" transform="translate(666.84 49.05)"><tspan x="0" y="0">U. Gabriela Mistral</tspan></text>
  <text class="cls-6" transform="translate(533.43 148.93)"><tspan x="0" y="0">U. del Desarrollo</tspan></text>
  <text class="cls-6" transform="translate(614.67 148.93)"><tspan x="0" y="0">U. Finis</tspan><tspan class="cls-12" x="25.01" y="0"> </tspan><tspan class="cls-10" x="26.94" y="0">T</tspan><tspan x="30.63" y="0">errae</tspan></text>
  <text class="cls-6" transform="translate(697.22 145.9)"><tspan x="0" y="0">U. Federico </tspan><tspan x="-1.03" y="10.8">Santa María</tspan></text>
  <text class="cls-6" transform="translate(542.66 236.68)"><tspan x="0" y="0">U. de Chile</tspan></text>
  <text class="cls-6" transform="translate(616.28 232.87)"><tspan x="0" y="0">U. de Santiago </tspan><tspan x="10.88" y="10.8">de Chile</tspan></text>
  <text class="cls-6" transform="translate(693.93 233.65)"><tspan x="0" y="0">U. del Bio Bio</tspan></text>
  <text class="cls-6" transform="translate(717.41 297.78)"><tspan x="0" y="0">U.</tspan><tspan class="cls-13" x="7.38" y="0"> </tspan><tspan x="9.03" y="0">Adolfo </tspan><tspan x="3.9" y="10.8">Ibañez</tspan></text>
  <text class="cls-6" transform="translate(535.11 348.09)"><tspan x="0" y="0">U.</tspan><tspan class="cls-13" x="7.38" y="0"> </tspan><tspan x="9.03" y="0">Austral </tspan><tspan x="2.46" y="10.8">de Chile</tspan></text>
  <text class="cls-6" transform="translate(590.01 348.09)"><tspan x="0" y="0">U. Bernardo </tspan><tspan x="3.49" y="10.8">O´Higgins</tspan></text>
  <text class="cls-6" transform="translate(649.95 348.09)"><tspan x="0" y="0">U. Católica </tspan><tspan x=".06" y="10.8">de</tspan><tspan class="cls-12" x="8.27" y="10.8"> </tspan><tspan class="cls-10" x="10.19" y="10.8">T</tspan><tspan x="13.88" y="10.8">emuco</tspan></text>
  <text class="cls-6" transform="translate(717.27 348.09)"><tspan x="0" y="0">U. de </tspan><tspan x="-10.88" y="10.8">Antofagasta</tspan></text>
  <text class="cls-6" transform="translate(711.19 401.62)"><tspan x="0" y="0">U. de</tspan><tspan class="cls-12" x="17.64" y="0"> </tspan><tspan class="cls-10" x="19.56" y="0">T</tspan><tspan x="23.26" y="0">alca</tspan></text>
  <text class="cls-6" transform="translate(535.95 431.5)"><tspan x="0" y="0">U. de</tspan><tspan class="cls-12" x="17.64" y="0"> </tspan><tspan class="cls-10" x="19.56" y="0">T</tspan><tspan x="23.26" y="0">arapacá</tspan></text>
  <text class="cls-6" transform="translate(626.08 443.04)"><tspan x="0" y="0">U. de </tspan><tspan class="cls-2" x="19.69" y="0">V</tspan><tspan x="24.07" y="0">alparaíso</tspan></text>
  <text class="cls-6" transform="translate(543.74 460.63)"><tspan x="0" y="0">U. de </tspan><tspan class="cls-12" x="19.69" y="0">V</tspan><tspan x="24.49" y="0">iña </tspan><tspan x="4.86" y="10.8">del Mar</tspan></text>
  <text class="cls-6" transform="translate(624.38 468.7)"><tspan x="0" y="0">U. Diego Portales</tspan></text>
  <text class="cls-6" transform="translate(714.62 455.6)"><tspan x="0" y="0">U. Mayor</tspan></text>
  <text class="cls-6" transform="translate(534.03 395.18)"><tspan x="0" y="0">U. de La Serena</tspan></text>
  <text class="cls-6" transform="translate(616.41 401.62)"><tspan x="0" y="0">UDL</tspan><tspan class="cls-13" x="14.76" y="0">A</tspan></text>
  <text class="cls-7" transform="translate(661.54 389.37)"><tspan x="0" y="0">U. de Playa </tspan><tspan x="3.1" y="9.6">Ancha de </tspan><tspan x="-3.65" y="19.2">Ciencias de la </tspan><tspan x="1.64" y="28.8">Educación</tspan></text>
  <text class="cls-6" transform="translate(544.47 297.78)"><tspan x="0" y="0">U.</tspan><tspan class="cls-12" x="7.38" y="0"> </tspan><tspan class="cls-10" x="9.3" y="0">T</tspan><tspan x="12.99" y="0">ecnológica </tspan><tspan x="1.78" y="10.8">Metropolitana</tspan></text>
  <text class="cls-6" transform="translate(625.68 297.78)"><tspan x="0" y="0">PUC de </tspan><tspan x="4.51" y="10.8">Chile</tspan></text>
  <text class="cls-6" transform="translate(674.55 297.78)"><tspan x="0" y="0">PUC de </tspan><tspan class="cls-2" x="-4.45" y="10.8">V</tspan><tspan x="-.07" y="10.8">alparaíso</tspan></text>
  <text class="cls-7" transform="translate(482.68 459.31)"><tspan x="0" y="0">IPLACEX</tspan></text>
</svg>